{"title":"Fukrey(2013).Hindi.Blu-Ray.720p.BRRip.x264.AAC.DTS.Esub","uid":8874224,"size":977613763,"categoryP":"video","categoryS":"hd___movies","magnet":"?xt=urn:btih:0ea18d24a3e417623b85f84d17305feeae83e59b&amp;dn=Fukrey%282013%29.Hindi.Blu-Ray.720p.BRRip.x264.AAC.DTS.Esub&amp;tr=udp%3A%2F%2Ftracker.openbittorrent.com%3A80&amp;tr=udp%3A%2F%2Fopen.demonii.com%3A1337&amp;tr=udp%3A%2F%2Ftracker.coppersurfer.tk%3A6969&amp;tr=udp%3A%2F%2Fexodus.desync.com%3A6969","seeders":2,"leechers":0,"uploader":"manucs2004","files":-1,"time":1378149357,"description":"Fukrey(2013).Hindi.Blu-Ray.720p.BRRip.x264.AAC.DTS.Esub\n\nSource:-720p.DDR{Thanks}\n\nFormat : MPEG-4\nFile size : 920 MiB\nDuration : 2h 20mn\nOverall bit rate mode : Variable\nOverall bit rate : 912 Kbps\n\nVideo\n\nFormat : AVC\nFormat profile : &lt;a class=&quot;__cf_email__&quot; href=&quot;/cdn-cgi/l/email-protection&quot; data-cfemail=&quot;d69ebfb1be969ae5f8e7&quot;&gt;[email&amp;#160;protected]&lt;/a&gt;&lt;script cf-hash='f9e31' type=&quot;text/javascript&quot;&gt;\n/* &lt;![CDATA[ */!function(){try{var t=&quot;currentScript&quot;in document?document.currentScript:function(){for(var t=document.getElementsByTagName(&quot;script&quot;),e=t.length;e--;)if(t[e].getAttribute(&quot;cf-hash&quot;))return t[e]}();if(t&amp;&amp;t.previousSibling){var e,r,n,i,c=t.previousSibling,a=c.getAttribute(&quot;data-cfemail&quot;);if(a){for(e=&quot;&quot;,r=parseInt(a.substr(0,2),16),n=2;a.length-n;n+=2)i=parseInt(a.substr(n,2),16)^r,e+=String.fromCharCode(i);e=document.createTextNode(e),c.parentNode.replaceChild(e,c)}}}catch(u){}}();/* ]]&gt; */&lt;/script&gt;\nFormat settings, CABAC : Yes\nFormat settings, ReFrames : 5 frames\nCodec ID : avc1\nCodec ID/Info : Advanced Video Coding\nDuration : 2h 20mn\nBit rate mode : Variable\nBit rate : 795 Kbps\nWidth : 1 280 pixels\nHeight : 536 pixels\nDisplay aspect ratio : 2.40:1\nFrame rate mode : Variable\nFrame rate : 24.000 fps\nMinimum frame rate : 23.810 fps\nMaximum frame rate : 24.390 fps\nColor space : YUV\nChroma subsampling : 4:2:0\nBit depth : 8 bits\nScan type : Progressive\nBits/(Pixel*Frame) : 0.048\nStream size : 801 MiB (87%)\nWriting library : x264 core 130 r2273 b3065e6\n\nAudio\n\nFormat : AAC\nFormat profile : LC\nCodec ID : 40\nDuration : 2h 20mn\nBit rate mode : Variable\nBit rate : 112 Kbps\nMaximum bit rate : 242 Kbps\nChannel count : 2 channels\nChannel positions : Front: L R\nSampling rate : 48.0 KHz\nCompression mode : Lossy\nDelay relative to video : 83ms\nStream size : 113 MiB (12%)\nLanguage : Hindi\n\n\nScreens:\n &lt;a href=&quot;\nhttp://imageshack.us/a/img818/4260/n82a.jpg&quot; rel=&quot;nofollow&quot; target=&quot;_NEW&quot;&gt;\nhttp://imageshack.us/a/img818/4260/n82a.jpg&lt;/a&gt;\n &lt;a href=&quot;\nhttp://imageshack.us/a/img534/7927/ujl5.jpg&quot; rel=&quot;nofollow&quot; target=&quot;_NEW&quot;&gt;\nhttp://imageshack.us/a/img534/7927/ujl5.jpg&lt;/a&gt;\n &lt;a href=&quot;\nhttp://imageshack.us/a/img855/7023/f6ya.jpg&quot; rel=&quot;nofollow&quot; target=&quot;_NEW&quot;&gt;\nhttp://imageshack.us/a/img855/7023/f6ya.jpg&lt;/a&gt;\n &lt;a href=&quot;\nhttp://imageshack.us/a/img593/7916/za1z.jpg&quot; rel=&quot;nofollow&quot; target=&quot;_NEW&quot;&gt;\nhttp://imageshack.us/a/img593/7916/za1z.jpg&lt;/a&gt;\n &lt;a href=&quot;\nhttp://imageshack.us/a/img822/4348/ffjy.jpg&quot; rel=&quot;nofollow&quot; target=&quot;_NEW&quot;&gt;\nhttp://imageshack.us/a/img822/4348/ffjy.jpg&lt;/a&gt;\n &lt;a href=&quot;\nhttp://imageshack.us/a/img542/7774/0gzn.jpg&quot; rel=&quot;nofollow&quot; target=&quot;_NEW&quot;&gt;\nhttp://imageshack.us/a/img542/7774/0gzn.jpg&lt;/a&gt;\n &lt;a href=&quot;\nhttp://imageshack.us/a/img196/7313/u9ib.jpg&quot; rel=&quot;nofollow&quot; target=&quot;_NEW&quot;&gt;\nhttp://imageshack.us/a/img196/7313/u9ib.jpg&lt;/a&gt;\n &lt;a href=&quot;\nhttp://imageshack.us/a/img24/5922/v4qh.jpg&quot; rel=&quot;nofollow&quot; target=&quot;_NEW&quot;&gt;\nhttp://imageshack.us/a/img24/5922/v4qh.jpg&lt;/a&gt;\n\n\n Cast:   Priya Anand           Manjot Singh   \n          Richa Chadda          Vishakha Singh \n          Ali Fazal             Pankaj Tripathi\n          Pulkit Samrat         Varun Sharma   \n                                               \n                                               \n                                               \n                                               \n       Director :   Mrigdeep Singh Lamba       \n       Writer   :   Mrigdeep Singh Lamba       \n                                               \n                                               \n       Genre    :   Vipul Vig                  \n                                               \n                                               \n                                               \n   College. Three of the most important years  \n   of your life. Three years of studies (at    \n   times) and sheer indulgence. Indulgence in  \n   all the little pleasures that a carefree    \n   life has to offer. But it isn't always about\n   ragging, fuchacha parties, college fests,   \n   races, and churning out ways to whack some  \n   extra pocket money from your parents. It's  \n   sometimes hard, ugly, and complicated. More \n   so, when you really need to get admission   \n   in the coolest college in town and you know \n   you don't deserve it. And to top that, you  \n   get yourself involved in the most bizarre   \n   stations that could crack you into pieces   \n   before you could crack it.                 \n","torrent":{"xt":"urn:btih:0ea18d24a3e417623b85f84d17305feeae83e59b","amp;dn":"Fukrey%282013%29.Hindi.Blu-Ray.720p.BRRip.x264.AAC.DTS.Esub","amp;tr":["udp%3A%2F%2Ftracker.openbittorrent.com%3A80","udp%3A%2F%2Fopen.demonii.com%3A1337","udp%3A%2F%2Ftracker.coppersurfer.tk%3A6969","udp%3A%2F%2Fexodus.desync.com%3A6969"],"infoHash":"0ea18d24a3e417623b85f84d17305feeae83e59b","infoHashBuffer":{"type":"Buffer","data":[14,161,141,36,163,228,23,98,59,133,248,77,23,48,95,238,174,131,229,155]},"announce":[],"urlList":[]}}